<?xml version="1.0" encoding="UTF-8" standalone="no"?>
<svg width="18px" height="21px" viewBox="0 0 18 21" version="1.1" xmlns="http://www.w3.org/2000/svg" xmlns:xlink="http://www.w3.org/1999/xlink" xmlns:sketch="http://www.bohemiancoding.com/sketch/ns">
    <title>Slice 1</title>
    <description>Created with Sketch (http://www.bohemiancoding.com/sketch)</description>
    <defs></defs>
    <g id="Page-1" stroke="none" stroke-width="1" fill="none" fill-rule="evenodd" sketch:type="MSPage">
        <g id="ic_location_history_24px" sketch:type="MSLayerGroup" transform="translate(-3.000000, -2.000000)">
            <path d="M19,2 L5,2 C3.89,2 3,2.9 3,4 L3,18 C3,19.1 3.89,20 5,20 L9,20 L12,23 L15,20 L19,20 C20.1,20 21,19.1 21,18 L21,4 C21,2.9 20.1,2 19,2 L19,2 Z M12,5.3 C13.49,5.3 14.7,6.51 14.7,8 C14.7,9.49 13.49,10.7 12,10.7 C10.51,10.7 9.3,9.49 9.3,8 C9.3,6.51 10.51,5.3 12,5.3 L12,5.3 Z M18,16 L6,16 L6,15.1 C6,13.1 10,12 12,12 C14,12 18,13.1 18,15.1 L18,16 L18,16 Z" id="Shape" fill="#FCFCFC" sketch:type="MSShapeGroup"></path>
            <path d="M0,0 L24,0 L24,24 L0,24 L0,0 Z" id="Shape" sketch:type="MSShapeGroup"></path>
        </g>
    </g>
</svg>