<?xml version="1.0" encoding="UTF-8" standalone="no"?>
<svg width="18px" height="18px" viewBox="0 0 18 18" version="1.1" xmlns="http://www.w3.org/2000/svg" xmlns:xlink="http://www.w3.org/1999/xlink" xmlns:sketch="http://www.bohemiancoding.com/sketch/ns">
    <title>Slice 1</title>
    <description>Created with Sketch (http://www.bohemiancoding.com/sketch)</description>
    <defs></defs>
    <g id="Page-1" stroke="none" stroke-width="1" fill="none" fill-rule="evenodd" sketch:type="MSPage">
        <g id="about" sketch:type="MSLayerGroup" fill="#BBBCBF">
            <path d="M12.6852285,12.5244309 C15.8182659,13.463048 18,15.5616668 18,18 C18,21.3137087 13.970563,24 9,24 C4.02943701,24 0,21.3137087 0,18 C0,15.5616668 2.18173413,13.463048 5.31477155,12.5244309 C3.90601641,11.2434945 3,9.24518737 3,7 C3,3.13400656 5.68629134,0 9,0 C12.3137087,0 15,3.13400656 15,7 C15,9.24518737 14.0939836,11.2434945 12.6852285,12.5244309 L12.6852285,12.5244309 Z M11.6167726,13.3009647 C14.7499876,14.0462277 17,16.0924667 17,18.5 C17,21.5375663 13.4182782,24 9,24 C4.58172178,24 1,21.5375663 1,18.5 C1,16.0924667 3.25001244,14.0462277 6.38322742,13.3009647 C7.17405669,13.7488214 8.0618858,14 9,14 C9.9381142,14 10.8259433,13.7488214 11.6167726,13.3009647 L11.6167726,13.3009647 Z M9,13 C11.7614239,13 14,10.3137087 14,7 C14,3.68629134 11.7614239,1 9,1 C6.23857611,1 4,3.68629134 4,7 C4,10.3137087 6.23857611,13 9,13 Z" id="Oval-4" sketch:type="MSShapeGroup"></path>
            <path d="M1,17.0095215 L0,18.0095215 L18,18.0095215 L17,17.0095215 L1,17.0095215 Z" id="Rectangle-3" sketch:type="MSShapeGroup"></path>
        </g>
    </g>
</svg>