<?xml version="1.0" encoding="UTF-8" standalone="no"?>
<svg width="18px" height="18px" viewBox="0 0 18 18" version="1.1" xmlns="http://www.w3.org/2000/svg" xmlns:xlink="http://www.w3.org/1999/xlink" xmlns:sketch="http://www.bohemiancoding.com/sketch/ns">
    <title>Slice 1</title>
    <description>Created with Sketch (http://www.bohemiancoding.com/sketch)</description>
    <defs></defs>
    <g id="Page-1" stroke="none" stroke-width="1" fill="none" fill-rule="evenodd" sketch:type="MSPage">
        <path d="M0.290994505,0.290994505 C0.11120428,0.470790276 0,0.719154159 0,0.993397683 L0,17.0066023 C0,17.5552407 0.444946289,18 0.993397683,18 L17.0066023,18 C17.5552407,18 18,17.5550537 18,17.0066023 L18,0.993397683 C18,0.719096202 17.8887778,0.470761143 17.7090053,0.290994273 L17,1 L17,17 L1,17 L1,1 L0.290994505,0.290994505 Z" id="Rectangle-1" fill="#BBBCBF" sketch:type="MSShapeGroup"></path>
        <path d="M8.36713748,10.2265014 C8.7166578,10.6536929 9.27922118,10.6587297 9.63286252,10.2265014 L17.3671375,0.773498639 C17.7166578,0.346307137 17.5550537,0 17.0066023,0 L0.993397683,0 C0.444759292,0 0.279221177,0.341270328 0.632862523,0.773498639 L8.36713748,10.2265014 Z M8.39104132,8.21705313 C8.72735991,8.64946275 9.2744083,8.64718933 9.60895868,8.21705313 L16,0 L2,0 L8.39104132,8.21705313 Z" id="Triangle-4" fill="#BBBCBF" sketch:type="MSShapeGroup"></path>
        <path d="M1,2 C1,3 0.908101,1.02784273 1,1 C1.41066895,0.875579232 2,1.45129462 2,1 C2,0.447715223 1.55228478,0 1,0 C0.447715223,0 0,0.447715223 0,1 C0,1.55228478 0.999999976,1.44771522 1,2 Z" id="Oval" fill="#BBBCBF" sketch:type="MSShapeGroup"></path>
        <path d="M17,1 C17.1745213,1.14858786 17,3 17,2 C17,1.44771522 18,1.55228478 18,1 C18,0.447715223 17.5522848,0 17,0 C16.4477152,0 16,0.447715223 16,1 C16,1.30511582 16.7845635,0.816576869 17,1 Z" id="Oval" fill="#BBBCBF" sketch:type="MSShapeGroup"></path>
    </g>
</svg>