<?xml version="1.0" encoding="UTF-8" standalone="no"?>
<svg width="18px" height="18px" viewBox="0 0 18 18" version="1.1" xmlns="http://www.w3.org/2000/svg" xmlns:xlink="http://www.w3.org/1999/xlink" xmlns:sketch="http://www.bohemiancoding.com/sketch/ns">
    <title>Slice 1</title>
    <description>Created with Sketch (http://www.bohemiancoding.com/sketch)</description>
    <defs></defs>
    <g id="Page-1" stroke="none" stroke-width="1" fill="none" fill-rule="evenodd" sketch:type="MSPage">
        <path d="M12.1361623,4.41953721 L13.1868875,4.42268711 L11.9026714,10.2961498 C11.8378117,10.6256444 11.7826818,10.9076127 11.73728,11.1420631 C11.6918782,11.3765134 11.6691777,11.582498 11.6691779,11.7600229 C11.6691781,12.165794 11.7502519,12.4228103 11.9124017,12.5310794 C12.0745516,12.6393484 12.3048008,12.7002694 12.6031564,12.7138442 C12.7847641,12.727069 13.031228,12.6739172 13.3425555,12.5543872 C13.6538829,12.4348572 13.9781775,12.2583071 14.3154488,12.0247317 C14.6527202,11.7911564 14.9867435,11.5100242 15.3175288,11.1813267 C15.6483141,10.8526293 15.9304502,10.4857505 16.1639457,10.0806793 C16.6439084,9.21985436 16.8838859,8.30126223 16.8838853,7.32487533 C16.8838849,6.72889891 16.7736244,6.1262608 16.5531003,5.51694293 C16.3325763,4.90762507 16.0180101,4.33290484 15.6093924,3.79276502 C15.2007747,3.2526252 14.7143324,2.76615084 14.150051,2.33332733 C13.5857696,1.90050383 12.9533948,1.56258385 12.2529077,1.31955726 C11.7859163,1.15331276 11.312446,1.03143186 10.8324827,0.953910906 C10.3525194,0.876389956 9.87904913,0.83693009 9.41205783,0.835530125 C8.62076701,0.833157962 7.82948813,0.951247346 7.03819745,1.18980182 C6.24690678,1.4283563 5.50427224,1.77483438 4.81027155,2.22924645 C4.11627086,2.68365853 3.49038252,3.24287926 2.93258776,3.90692542 C2.374793,4.57097158 1.93375273,5.32094885 1.60945372,6.15687971 C1.18137901,7.22074576 0.967345222,8.33595813 0.967345935,9.50255028 C0.967346516,10.4535765 1.14895209,11.3797725 1.5121681,12.2811662 C1.8753841,13.1825599 2.42019961,13.9862132 3.14663096,14.6921503 C3.87306231,15.3980874 4.78757357,15.9682661 5.8901922,16.4027035 C6.99281082,16.8371408 8.28350367,17.0629129 9.76230948,17.0800265 C10.5017124,17.0822431 11.2248894,16.9893099 11.9318622,16.801224 C12.6388351,16.6131382 13.300396,16.3646883 13.9165649,16.0558669 C14.5327338,15.7470455 15.0872774,15.3936635 15.5802124,14.9957102 C16.0731475,14.597757 16.4752726,14.1836873 16.7865999,13.7534887 L17.837325,13.7566386 C17.5130258,14.212159 17.0979289,14.6864205 16.592022,15.1794375 C16.086115,15.6724545 15.4926561,16.1239911 14.8116274,16.5340609 C14.1305986,16.9441306 13.3685064,17.2778702 12.5253278,17.5352897 C11.6821492,17.7927091 10.7546666,17.9199003 9.74285212,17.916867 C8.18621443,17.9122005 6.80471907,17.6829862 5.5983246,17.2292172 C4.39193012,16.7754482 3.38013043,16.1701074 2.56289519,15.4131767 C1.74565994,14.656246 1.12625663,13.7826281 0.704666649,12.792297 C0.283076673,11.8019659 0.0722845173,10.767901 0.072283859,9.69007132 C0.0722831388,8.51079882 0.299288652,7.29418406 0.75330721,6.04019055 C1.06463426,5.24226184 1.48945979,4.48272585 2.02779655,3.76155978 C2.5661333,3.04039372 3.20499338,2.40513092 3.94439594,1.85575233 C4.6837985,1.30637374 5.52047844,0.868246441 6.45446085,0.541357287 C7.38844326,0.214468133 8.41321426,0.0526981629 9.5288046,0.0560425245 C10.7092548,0.0595813258 11.798885,0.26256037 12.7977278,0.664985747 C13.7965705,1.06741112 14.6591946,1.59939378 15.3856259,2.26094967 C16.1120572,2.92250557 16.6828163,3.67868608 17.0979202,4.52951391 C17.5130241,5.38034173 17.7205732,6.262235 17.7205738,7.17522015 C17.7205743,7.98676252 17.5519416,8.82948757 17.2146706,9.70342059 C16.9422594,10.3746625 16.5952645,10.9600796 16.1736754,11.4596895 C15.7520864,11.9592995 15.2980741,12.3732136 14.811625,12.7014444 C14.325176,13.0296752 13.8354912,13.2786404 13.342556,13.4483473 C12.8496209,13.6180543 12.4020943,13.7023038 11.9999629,13.7010983 C11.4940556,13.6995816 11.0984161,13.5969543 10.8130324,13.3932132 C10.7092565,13.3295003 10.6119681,13.2150872 10.5211641,13.0499705 C10.4303601,12.8848537 10.3719869,12.586695 10.3460427,12.1554853 C10.0866033,12.4590359 9.82392474,12.7055116 9.55799925,12.8949196 C9.29207376,13.0843277 9.02290929,13.2325126 8.75049776,13.3394789 C8.47808623,13.4464453 8.21216466,13.521729 7.95272508,13.5653325 C7.69328549,13.608936 7.44033567,13.6303679 7.19386804,13.6296291 C6.64904485,13.6279958 6.13341626,13.467948 5.64696679,13.149481 C5.16051732,12.8310139 4.7746064,12.3670312 4.48922245,11.7575189 C4.34653049,11.4654431 4.242756,11.148128 4.17789589,10.8055642 C4.11303578,10.4630003 4.0806061,10.1141987 4.08060588,9.75914891 C4.08060548,9.09977074 4.19410821,8.44074273 4.42111747,7.7820451 C4.64812673,7.12334746 4.96269218,6.528323 5.36482325,5.99695385 C5.76695433,5.4655847 6.25015309,5.02956776 6.81443404,4.68888995 C7.37871499,4.34821214 8.00460357,4.17256623 8.69211853,4.16194694 C8.93858617,4.16268581 9.19153601,4.18880443 9.45097566,4.24030358 C9.7104153,4.29180274 9.96660814,4.38767196 10.2195618,4.52791412 C10.4725156,4.66815628 10.7254655,4.85594693 10.9784193,5.09129171 C11.231373,5.32663649 11.4745942,5.6285194 11.7080901,5.99694952 C11.7470059,5.78150024 11.8118647,5.53760162 11.9026684,5.26524632 C11.9934721,4.99289102 12.0713026,4.7109908 12.1361623,4.41953721 Z M11.3383917,7.91690455 C11.3383914,7.51113337 11.2832611,7.12422324 11.172999,6.75616256 C11.062737,6.38810188 10.8843747,6.05788304 10.6379069,5.76549613 C10.4044111,5.48582846 10.1287605,5.26626936 9.81094685,5.10681224 C9.49313323,4.94735512 9.13965201,4.86704444 8.75049259,4.86587781 C8.28350128,4.86447784 7.82300296,4.99623901 7.36898379,5.26116527 C6.91496463,5.52609153 6.50959654,5.88626084 6.15286735,6.341684 C5.79613816,6.79710716 5.51075918,7.31930821 5.29672186,7.90830281 C5.08268454,8.4972974 4.97566768,9.11513434 4.97566808,9.76183216 C4.97566841,10.3070872 5.08268596,10.8272945 5.29672395,11.3224698 C5.51076193,11.8176451 5.8058703,12.2052746 6.18205791,12.4853701 L6.20151578,12.4854284 C6.38312359,12.6127763 6.60364401,12.7085386 6.86308367,12.7727181 C7.12252332,12.8368976 7.36898727,12.8693369 7.60248293,12.8700369 C8.10839017,12.8715535 8.58834618,12.7430207 9.04236534,12.4844346 C9.49638451,12.2258485 9.89202377,11.8751602 10.229295,11.432359 C10.5665662,10.9895579 10.8357305,10.4641382 11.0367958,9.85608417 C11.2378611,9.24803016 11.3383921,8.60164342 11.3383917,7.91690455 Z" id="@" stroke="#BBBCBF" stroke-width="0.2" fill="#BBBCBF" sketch:type="MSShapeGroup"></path>
    </g>
</svg>